<svg width="180" height="180" viewBox="0 0 180 180" fill="none" xmlns="http://www.w3.org/2000/svg">
<g clip-path="url(#clip0_564_4389)">
<path d="M74.0796 58.0553L94.1522 38.2788L99.5862 66.6259L74.0796 58.0553Z" fill="#B4C3D4"/>
<path d="M95.2402 37.792L100.774 66.6224L110.262 62.726L95.2402 37.792Z" fill="#93A4B9"/>
<path d="M96.2388 37.2065L111.452 62.3369L126.873 56.1071L96.2388 37.2065Z" fill="#B4C3D4"/>
<path d="M97.2178 36.6207L128.649 55.7101L134.78 55.3174L110.661 36.228L97.2178 36.6207Z" fill="#D6E3EE"/>
<path d="M129.048 56.2956L131.417 69.7367L135.18 67.0107L134.781 56.0615L129.048 56.2956Z" fill="#B4C3D4"/>
<path d="M100.973 67.4041L128.059 56.689L130.32 69.7374L127.66 72.6597L115.65 68.1819L100.973 67.4041Z" fill="#102A4C"/>
<path d="M132.112 70.5267L135.178 67.9971L167.996 90.3863H154.492L132.112 70.5267Z" fill="#D6E3EE"/>
<path d="M154.354 91.3638H167.997L161.666 101.105L154.945 95.2602L154.354 91.3638Z" fill="#102A4C"/>
<path d="M128.459 73.6322L131.418 71.1025L153.368 90.9697L153.958 95.0624L138.339 93.3105L132.115 89.5198L128.459 73.6322Z" fill="#B4C3D4"/>
<path d="M139.724 94.481L154.615 96.2328L160.678 102.077L158.11 106.555L154.355 109.281L152.377 104.803L139.724 94.481Z" fill="#D6E3EE"/>
<path d="M131.814 90.5845L116.984 108.503L136.359 110.648L153.366 109.87L151.588 105.581L131.814 90.5845Z" fill="#74879E"/>
<path d="M117.222 109.282L124.303 114.152L144.269 115.519L152.968 113.374L153.956 110.845L136.359 111.819L117.222 109.282Z" fill="#102A4C"/>
<path d="M124.894 114.93L130.428 122.919L139.724 124.12L143.48 116.297L124.894 114.93Z" fill="#93A4B9"/>
<path d="M144.271 116.295L152.579 114.543L147.834 122.525L140.515 124.669L144.271 116.295Z" fill="#D6E3EE"/>
<path d="M101.366 68.3779L115.652 69.2539L127.271 73.6335L131.027 89.4155L101.366 68.3779Z" fill="#D6E3EE"/>
<path d="M100.774 69.3506L103.94 100.129L130.558 90.1918L100.774 69.3506Z" fill="#74879E"/>
<path d="M104.331 101.102L130.236 91.165L115.996 107.725L104.331 101.102Z" fill="#536883"/>
<path d="M83.9668 80.2541L99.5865 67.7041L102.851 100.129L83.9668 80.2541Z" fill="#93A4B9"/>
<path d="M104.331 102.11V123.812L116.103 109.283L104.331 102.11Z" fill="#74879E"/>
<path d="M116.786 110.254L105.312 124.118L129.639 123.114L123.668 114.928L116.786 110.254Z" fill="#536883"/>
<path d="M73.0913 59.2139L69.9336 89.411L98.0154 67.3163L73.0913 59.2139Z" fill="#536883"/>
<path d="M82.5891 81.4263L69.6749 91.1673L68.9468 96.8156L101.964 100.81L82.5891 81.4263Z" fill="#74879E"/>
<path d="M68.7471 97.7856L101.765 101.682L78.0361 138.698L68.7471 97.7856Z" fill="#B4C3D4"/>
<path d="M102.95 102.661L78.6318 140.258L83.7669 156.425L102.95 102.661Z" fill="#74879E"/>
<path d="M103.742 103.434L84.7578 157.002L94.2538 148.447L102.953 126.979L103.742 103.434Z" fill="#324968"/>
<path d="M91.6775 0L96.23 35.0601L90.0986 40.5196L91.6775 0Z" fill="#D6E3EE"/>
<path d="M90.2966 0.134766L88.7101 41.6889L73.3203 56.6855L76.0564 34.0848L85.3532 1.75072L90.2966 0.134766Z" fill="#324968"/>
<path d="M83.769 2.53125L74.0814 34.8729L72.3033 57.6624L62.8149 41.6916L73.3226 14.6886L83.769 2.53125Z" fill="#93A4B9"/>
<path d="M71.7127 16.166L56.4839 30.7775L57.6489 56.6856L71.5135 58.4375L61.2281 41.8778L71.7127 16.166Z" fill="#536883"/>
<path d="M113.031 36.4257L112.242 10.125L105.72 35.059H110.663L113.031 36.4257Z" fill="#D6E3EE"/>
<path d="M96.8193 35.059L111.358 10.125L104.645 35.059H96.8193Z" fill="#324968"/>
<path d="M57.6715 58.0537L71.7124 59.5488L70.3251 72.0762L55.3032 86.9898L57.6715 58.0537Z" fill="#D6E3EE"/>
<path d="M55.3032 88.4416L67.7576 96.6196L70.3251 73.6338L55.3032 88.4416Z" fill="#93A4B9"/>
<path d="M54.9045 89.6123L67.7574 97.9866L68.3475 100.516L50.9497 122.921L54.9045 89.6123Z" fill="#B4C3D4"/>
<path d="M68.5468 102.075L50.9497 124.864V178.236L76.8472 139.861L68.5468 102.075Z" fill="#74879E"/>
<path d="M77.4449 141.232L83.1777 157.981L51.3481 180L77.4449 141.232Z" fill="#324968"/>
<path d="M55.1037 32.1445L55.9621 52.4496L12 94.2831L34.0807 51.3849L55.1037 32.1445Z" fill="#D6E3EE"/>
<path d="M56.1614 55.124L55.6938 62.9168L12 135.778V96.0363L56.1614 55.124Z" fill="#93A4B9"/>
<path d="M55.4946 66.241L12 139.261C12 139.261 52.927 87.271 52.927 87.8524C52.927 88.4338 55.4946 66.2334 55.4946 66.2334V66.241Z" fill="#324968"/>
<path d="M53.5172 89.6123L12 141.33L49.4551 123.895L53.5172 89.6123Z" fill="#93A4B9"/>
<path d="M12 142.641L49.5624 125.447V179.997L12 142.641Z" fill="#536883"/>
</g>
<defs>
<clipPath id="clip0_564_4389">
<rect width="180" height="180" fill="white"/>
</clipPath>
</defs>
</svg>
