<svg width="314" height="104" viewBox="0 0 314 104" fill="none" xmlns="http://www.w3.org/2000/svg">
<g clip-path="url(#clip0_6011_5618)">
<path d="M35.8398 33.5428L47.2623 22.1191L50.3563 38.4936L35.8398 33.5428Z" fill="#B4C3D4"/>
<path d="M47.8809 21.834L51.0344 38.4927L56.434 36.2419L47.8809 21.834Z" fill="#93A4B9"/>
<path d="M48.4492 21.5L57.1078 36.0179L65.8855 32.4148L48.4492 21.5Z" fill="#B4C3D4"/>
<path d="M49.0039 21.1602L66.8985 32.1896L70.3867 31.965L56.6586 20.9355L49.0039 21.1602Z" fill="#D6E3EE"/>
<path d="M67.123 32.5281L68.4752 40.2937L70.6112 38.7167L70.3866 32.3906L67.123 32.5281Z" fill="#B4C3D4"/>
<path d="M51.1445 38.9425L66.564 32.7539L67.852 40.2948L66.3348 41.9817L59.496 39.3917L51.1445 38.9425Z" fill="#102A4C"/>
<path d="M68.8691 40.7534L70.6109 39.291L89.2939 52.2274H81.6117L68.8691 40.7534Z" fill="#D6E3EE"/>
<path d="M81.5293 52.7871H89.294L85.6958 58.4164L81.8685 55.0379L81.5293 52.7871Z" fill="#102A4C"/>
<path d="M66.7891 42.5444L68.4759 41.082L80.9663 52.5607L81.3055 54.9261L72.4132 53.913L68.87 51.7264L66.7891 42.5444Z" fill="#B4C3D4"/>
<path d="M73.2012 54.5879L81.6809 55.601L85.1324 58.9795L83.6703 61.5649L81.5297 63.1419L80.4067 60.5518L73.2012 54.5879Z" fill="#D6E3EE"/>
<path d="M68.7002 52.3379L60.2617 62.6934L71.29 63.9311L80.9661 63.4819L79.9531 61.0065L68.7002 52.3379Z" fill="#74879E"/>
<path d="M60.3945 63.1426L64.4236 65.9572L75.7911 66.7457L80.7414 65.508L81.3052 64.0457L71.2899 64.6049L60.3945 63.1426Z" fill="#102A4C"/>
<path d="M64.7637 66.4062L67.9127 71.0225L73.2022 71.7147L75.3428 67.1947L64.7637 66.4062Z" fill="#93A4B9"/>
<path d="M75.791 67.1947L80.5167 66.1816L77.8169 70.7979L73.6504 72.0356L75.791 67.1947Z" fill="#D6E3EE"/>
<path d="M51.3691 39.5059L59.496 40.0101L66.1102 42.5451L68.2508 51.663L51.3691 39.5059Z" fill="#D6E3EE"/>
<path d="M51.0312 40.0703L52.8326 57.8521L67.9862 52.1128L51.0312 40.0703Z" fill="#74879E"/>
<path d="M53.0566 58.4151L67.8023 52.6758L59.6984 62.2428L53.0566 58.4151Z" fill="#536883"/>
<path d="M41.4648 46.3732L50.3571 39.1211L52.2135 57.8518L41.4648 46.3732Z" fill="#93A4B9"/>
<path d="M53.0566 58.998V71.5356L59.758 63.1421L53.0566 58.998Z" fill="#74879E"/>
<path d="M60.147 63.7051L53.6152 71.7135L67.4625 71.1314L64.0614 66.4051L60.147 63.7051Z" fill="#536883"/>
<path d="M35.276 34.2168L33.4746 51.664L49.4624 38.8972L35.276 34.2168Z" fill="#536883"/>
<path d="M40.6749 47.0469L33.3273 52.6762L32.9102 55.9401L51.7078 58.2459L40.6749 47.0469Z" fill="#74879E"/>
<path d="M32.8008 56.5L51.5938 58.7554L38.0903 80.1403L32.8008 56.5Z" fill="#B4C3D4"/>
<path d="M52.2684 59.3145L38.4258 81.0386L41.3547 90.3811L52.2684 59.3145Z" fill="#74879E"/>
<path d="M52.7223 59.7676L41.9141 90.7196L47.3182 85.7733L52.2686 73.3687L52.7223 59.7676Z" fill="#324968"/>
<path d="M45.8561 0L48.4459 20.2618L44.9531 23.4111L45.8561 0Z" fill="#D6E3EE"/>
<path d="M45.0667 0.078125L44.1683 24.0852L35.4043 32.7538L36.9627 19.6982L42.2523 1.01329L45.0667 0.078125Z" fill="#324968"/>
<path d="M41.3551 1.46289L35.841 20.1478L34.828 33.318L29.4238 24.0855L35.4055 8.49035L41.3551 1.46289Z" fill="#93A4B9"/>
<path d="M34.488 9.3418L25.8203 17.7812L26.4804 32.7529L34.3734 33.766L28.5247 24.1989L34.488 9.3418Z" fill="#536883"/>
<path d="M58.0103 21.0453L57.5565 5.85352L53.8438 20.2614H56.6581L58.0103 21.0453Z" fill="#D6E3EE"/>
<path d="M48.7793 20.2614L57.0574 5.85352L53.2346 20.2614H48.7793Z" fill="#324968"/>
<path d="M26.4987 33.543L34.488 34.4048L33.6996 41.6477L25.1465 50.2613L26.4987 33.543Z" fill="#D6E3EE"/>
<path d="M25.1465 51.0989L32.2374 55.8251L33.6996 42.5449L25.1465 51.0989Z" fill="#93A4B9"/>
<path d="M24.9225 51.7734L32.238 56.6143L32.5772 58.0766L22.6719 71.0222L24.9225 51.7734Z" fill="#B4C3D4"/>
<path d="M32.6872 58.9785L22.6719 72.1441V102.986L37.4129 80.8127L32.6872 58.9785Z" fill="#74879E"/>
<path d="M37.7521 81.6016L41.0157 91.2786L22.8965 104L37.7521 81.6016Z" fill="#324968"/>
<path d="M25.0363 18.5703L25.5268 30.3057L0.5 54.4777L13.0684 29.6914L25.0363 18.5703Z" fill="#D6E3EE"/>
<path d="M25.6368 31.8496L25.371 36.3558L0.5 78.4472V55.4899L25.6368 31.8496Z" fill="#93A4B9"/>
<path d="M25.2609 38.2676L0.5 80.4644C0.5 80.4644 23.7942 50.4247 23.7942 50.7639C23.7942 51.1031 25.2564 38.2722 25.2564 38.2722L25.2609 38.2676Z" fill="#324968"/>
<path d="M24.1334 51.7734L0.5 81.6573L21.8186 71.586L24.1334 51.7734Z" fill="#93A4B9"/>
<path d="M0.5 82.4182L21.8828 72.4844V104L0.5 82.4182Z" fill="#536883"/>
<path d="M106.955 58.9142V30.1992H111.919V54.4401H125.372V58.9096H106.955V58.9142Z" fill="white"/>
<path d="M135.992 58.9135V48.7826L126.109 30.2031H131.646L138.128 42.8782H138.824L145.306 30.2031H150.802L140.919 48.7826V58.9135H135.996H135.992Z" fill="white"/>
<path d="M158.137 58.9142V30.1992H167.57L174.335 55.5907H174.991V30.1992H179.872V58.9142H170.481L163.715 33.5227H163.018V58.9142H158.137Z" fill="white"/>
<path d="M187.793 58.9142L196.447 44.4329L187.917 30.1992H193.536L199.646 40.9444H200.343L206.412 30.1992H212.073L203.542 44.4329L212.155 58.9142H206.536L200.343 47.9214H199.646L193.454 58.9142H187.793Z" fill="white"/>
<path d="M244.516 59.4873C242.329 59.4873 240.395 59.0976 238.713 58.3183C237.03 57.539 235.71 56.4113 234.757 54.9352C233.799 53.4591 233.322 51.653 233.322 49.5214V48.4533H238.204V49.5214C238.204 51.41 238.777 52.8174 239.927 53.7479C241.078 54.6785 242.609 55.1415 244.52 55.1415C246.432 55.1415 247.926 54.7473 248.907 53.9542C249.892 53.1612 250.383 52.1343 250.383 50.8783C250.383 50.0302 250.149 49.338 249.686 48.8063C249.223 48.2745 248.545 47.8436 247.655 47.5135C246.766 47.1835 245.694 46.8717 244.438 46.5692L243.209 46.3217C241.321 45.8862 239.689 45.3315 238.309 44.6622C236.93 43.9929 235.871 43.1219 235.133 42.0584C234.395 40.9903 234.024 39.5967 234.024 37.8731C234.024 36.1495 234.432 34.6734 235.252 33.4449C236.072 32.2163 237.232 31.272 238.74 30.6164C240.244 29.9609 242.008 29.6309 244.03 29.6309C246.051 29.6309 247.857 29.9747 249.443 30.6577C251.029 31.3407 252.28 32.3676 253.197 33.7336C254.114 35.0997 254.572 36.8096 254.572 38.8587V40.211H249.691V38.8587C249.691 37.6852 249.457 36.7408 248.994 36.0303C248.531 35.3198 247.871 34.8018 247.027 34.4717C246.179 34.1416 245.18 33.9812 244.034 33.9812C242.338 33.9812 241.055 34.3112 240.179 34.9668C239.304 35.6223 238.868 36.5529 238.868 37.7539C238.868 38.5195 239.066 39.1704 239.464 39.7022C239.859 40.2339 240.45 40.674 241.229 41.0132C242.008 41.357 242.985 41.6504 244.163 41.8934L245.391 42.1822C247.357 42.6177 249.081 43.1724 250.557 43.8416C252.033 44.5109 253.188 45.3957 254.022 46.4867C254.856 47.5823 255.273 49.0034 255.273 50.7545C255.273 52.5056 254.829 53.9955 253.94 55.3065C253.05 56.6176 251.808 57.6444 250.208 58.3825C248.609 59.1205 246.716 59.4918 244.529 59.4918L244.516 59.4873Z" fill="white"/>
<path d="M273.553 59.4873C271.366 59.4873 269.432 59.0976 267.75 58.3183C266.068 57.539 264.747 56.4113 263.794 54.9352C262.836 53.4591 262.359 51.653 262.359 49.5214V48.4533H267.241V49.5214C267.241 51.41 267.814 52.8174 268.964 53.7479C270.115 54.6785 271.646 55.1415 273.557 55.1415C275.469 55.1415 276.963 54.7473 277.944 53.9542C278.929 53.1612 279.42 52.1343 279.42 50.8783C279.42 50.0302 279.186 49.338 278.723 48.8063C278.26 48.2745 277.582 47.8436 276.692 47.5135C275.803 47.1835 274.731 46.8717 273.475 46.5692L272.246 46.3217C270.358 45.8862 268.726 45.3315 267.346 44.6622C265.967 43.9929 264.908 43.1219 264.17 42.0584C263.432 40.9903 263.061 39.5967 263.061 37.8731C263.061 36.1495 263.469 34.6734 264.289 33.4449C265.11 32.2163 266.269 31.272 267.777 30.6164C269.281 29.9609 271.045 29.6309 273.067 29.6309C275.088 29.6309 276.894 29.9747 278.48 30.6577C280.066 31.3407 281.317 32.3676 282.234 33.7336C283.151 35.0997 283.609 36.8096 283.609 38.8587V40.211H278.728V38.8587C278.728 37.6852 278.494 36.7408 278.031 36.0303C277.568 35.3198 276.908 34.8018 276.065 34.4717C275.217 34.1416 274.217 33.9812 273.071 33.9812C271.375 33.9812 270.092 34.3112 269.217 34.9668C268.341 35.6223 267.906 36.5529 267.906 37.7539C267.906 38.5195 268.103 39.1704 268.501 39.7022C268.896 40.2339 269.487 40.674 270.266 41.0132C271.045 41.357 272.022 41.6504 273.2 41.8934L274.428 42.1822C276.395 42.6177 278.118 43.1724 279.594 43.8416C281.07 44.5109 282.225 45.3957 283.059 46.4867C283.893 47.5823 284.311 49.0034 284.311 50.7545C284.311 52.5056 283.866 53.9955 282.977 55.3065C282.087 56.6176 280.845 57.6444 279.246 58.3825C277.646 59.1205 275.753 59.4918 273.566 59.4918L273.553 59.4873Z" fill="white"/>
<path d="M292.703 58.9142V30.1992H304.308C306.114 30.1992 307.7 30.5568 309.066 31.2673C310.432 31.9779 311.514 32.9818 312.307 34.2837C313.1 35.581 313.494 37.1212 313.494 38.8999V39.4729C313.494 41.224 313.091 42.7551 312.284 44.0662C311.477 45.3773 310.382 46.3903 309.002 47.1009C307.622 47.8114 306.055 48.169 304.304 48.169H297.657V58.9142H292.693H292.703ZM297.667 43.6949H303.818C305.239 43.6949 306.38 43.3144 307.242 42.5443C308.104 41.7787 308.535 40.7244 308.535 39.3858V38.9732C308.535 37.6347 308.108 36.5803 307.265 35.8148C306.417 35.0492 305.266 34.6642 303.818 34.6642H297.667V43.6903V43.6949Z" fill="white"/>
<path d="M108.454 80.3488L107.207 72.6934H108.124L109.206 79.7575H109.357L110.769 72.6934H112.409L113.808 79.7575H113.959L115.041 72.6934H115.957L114.71 80.3488H113.07L111.658 73.2435H111.507L110.095 80.3488H108.445H108.454Z" fill="white"/>
<path d="M118.336 80.3488V72.6934H119.253V76.0948H122.837V72.6934H123.754V80.3488H122.837V76.9245H119.253V80.3488H118.336Z" fill="white"/>
<path d="M126.605 80.3488V72.6934H131.317V73.5231H127.522V76.081H131.01V76.9108H127.522V79.5145H131.372V80.3443H126.605V80.3488Z" fill="white"/>
<path d="M133.852 80.3488V72.6934H136.946C137.418 72.6934 137.835 72.7759 138.197 72.9409C138.559 73.1059 138.839 73.3397 139.045 73.6423C139.251 73.9448 139.352 74.307 139.352 74.7287V74.8479C139.352 75.3521 139.233 75.7464 138.99 76.0398C138.747 76.3332 138.463 76.5303 138.137 76.6311V76.7824C138.399 76.7916 138.614 76.8741 138.788 77.0391C138.958 77.2041 139.045 77.4471 139.045 77.7772V80.3488H138.137V77.8872C138.137 77.6671 138.078 77.5021 137.959 77.3829C137.839 77.2683 137.656 77.2087 137.418 77.2087H134.773V80.3488H133.856H133.852ZM134.768 76.379H136.858C137.363 76.379 137.748 76.2552 138.023 76.0123C138.298 75.7693 138.431 75.4255 138.431 74.99V74.9121C138.431 74.4766 138.298 74.1328 138.027 73.8898C137.757 73.6469 137.367 73.5231 136.858 73.5231H134.768V76.379Z" fill="white"/>
<path d="M141.846 80.3488V72.6934H146.558V73.5231H142.762V76.081H146.251V76.9108H142.762V79.5145H146.613V80.3443H141.846V80.3488Z" fill="white"/>
<path d="M152.251 80.3488L154.612 72.6934H156.23L158.591 80.3488H157.637L157.046 78.4143H153.787L153.196 80.3488H152.242H152.251ZM154.025 77.5846H156.812L155.501 73.2526H155.35L154.025 77.5846Z" fill="white"/>
<path d="M163.394 80.5056C162.825 80.5056 162.326 80.3864 161.89 80.148C161.455 79.9097 161.115 79.5613 160.873 79.1028C160.63 78.6444 160.506 78.076 160.506 77.3976V75.6464C160.506 74.6333 160.776 73.8632 161.317 73.336C161.858 72.8088 162.582 72.543 163.494 72.543C164.407 72.543 165.085 72.7905 165.562 73.2856C166.034 73.7807 166.272 74.4454 166.272 75.2751V75.3301H165.365V75.2522C165.365 74.89 165.3 74.5646 165.167 74.2803C165.035 73.9961 164.833 73.7715 164.553 73.6065C164.278 73.4415 163.921 73.3589 163.494 73.3589C162.844 73.3589 162.339 73.5561 161.973 73.9549C161.611 74.3537 161.427 74.9084 161.427 75.6235V77.4159C161.427 78.131 161.611 78.6857 161.973 79.0845C162.335 79.4833 162.848 79.6805 163.504 79.6805C164.159 79.6805 164.617 79.4971 164.92 79.1349C165.222 78.7728 165.374 78.2869 165.374 77.6818V77.4938H163.054V76.7054H166.268V80.3451H165.438V79.5154H165.287C165.209 79.6759 165.094 79.8317 164.947 79.9876C164.801 80.1434 164.604 80.2626 164.356 80.3589C164.109 80.4552 163.788 80.501 163.394 80.501V80.5056Z" fill="white"/>
<path d="M169.035 80.3488V72.6934H169.952V80.3488H169.035Z" fill="white"/>
<path d="M172.796 80.3488V72.6934H173.712V79.5145H177.581V80.3443H172.791L172.796 80.3488Z" fill="white"/>
<path d="M179.857 80.3488V72.6934H180.774V80.3488H179.857Z" fill="white"/>
<path d="M185.5 80.3501V73.5289H183.039V72.6992H188.879V73.5289H186.417V80.3501H185.5Z" fill="white"/>
<path d="M193.141 80.3488V77.4288L190.418 72.6934H191.468L193.521 76.3652H193.672L195.726 72.6934H196.776L194.053 77.4288V80.3488H193.136H193.141Z" fill="white"/>
<path d="M202.662 80.3488V72.6934H204.413L206.448 79.7667H206.59L208.625 72.6934H210.376V80.3488H209.492V73.2985H209.341L207.319 80.3488H205.733L203.712 73.2985H203.561V80.3488H202.676H202.662Z" fill="white"/>
<path d="M213.213 80.3488V72.6934H217.925V73.5231H214.13V76.081H217.618V76.9108H214.13V79.5145H217.98V80.3443H213.213V80.3488Z" fill="white"/>
<path d="M220.465 80.3488V72.6934H225.177V73.5231H221.382V76.081H224.87V76.9108H221.382V79.5145H225.232V80.3443H220.465V80.3488Z" fill="white"/>
<path d="M229.59 80.3501V73.5289H227.129V72.6992H232.969V73.5289H230.507V80.3501H229.59Z" fill="white"/>
<path d="M237.586 80.5062C237.031 80.5062 236.536 80.4099 236.101 80.2128C235.665 80.0157 235.317 79.7177 235.069 79.3235C234.817 78.9247 234.693 78.4296 234.693 77.8291V77.5999H235.601V77.8291C235.601 78.4617 235.789 78.9338 236.16 79.2456C236.531 79.5573 237.008 79.7086 237.59 79.7086C238.172 79.7086 238.644 79.5756 238.956 79.3051C239.268 79.0347 239.428 78.6955 239.428 78.2875C239.428 78.0033 239.36 77.7786 239.217 77.609C239.075 77.4394 238.878 77.3065 238.622 77.201C238.365 77.0956 238.067 77.0039 237.723 76.9214L237.155 76.7793C236.71 76.6647 236.316 76.5226 235.972 76.353C235.628 76.1834 235.363 75.9633 235.17 75.6929C234.978 75.4178 234.881 75.0694 234.881 74.6385C234.881 74.2076 234.987 73.8363 235.202 73.5246C235.418 73.2128 235.72 72.9699 236.11 72.8049C236.499 72.6352 236.949 72.5527 237.462 72.5527C237.975 72.5527 238.443 72.6398 238.855 72.8186C239.268 72.9974 239.593 73.2587 239.827 73.6071C240.061 73.9555 240.185 74.391 240.185 74.9136V75.372H239.277V74.9136C239.277 74.5422 239.199 74.2443 239.043 74.0151C238.887 73.7859 238.672 73.6208 238.397 73.5108C238.122 73.4008 237.81 73.3458 237.462 73.3458C236.958 73.3458 236.554 73.4558 236.247 73.6804C235.94 73.905 235.789 74.2168 235.789 74.6248C235.789 74.8952 235.853 75.1153 235.986 75.2803C236.119 75.4499 236.302 75.5828 236.545 75.6883C236.788 75.7937 237.072 75.8854 237.407 75.9679L237.975 76.11C238.42 76.2063 238.819 76.3346 239.172 76.4997C239.525 76.6647 239.809 76.8847 240.02 77.1689C240.23 77.4486 240.336 77.8153 240.336 78.2691C240.336 78.723 240.221 79.1126 239.997 79.4518C239.772 79.7865 239.451 80.0478 239.039 80.2357C238.626 80.4237 238.145 80.5154 237.59 80.5154L237.586 80.5062Z" fill="white"/>
<path d="M245.992 80.3488L248.352 72.6934H249.97L252.331 80.3488H251.377L250.786 78.4143H247.527L246.936 80.3488H245.982H245.992ZM247.765 77.5846H250.552L249.241 73.2526H249.09L247.765 77.5846Z" fill="white"/>
<path d="M254.576 80.3488V72.6934H256.359L259.027 79.7667H259.169V72.6934H260.077V80.3488H258.294L255.635 73.2618H255.484V80.3488H254.576Z" fill="white"/>
<path d="M262.328 80.3488L264.688 72.6934H266.306L268.667 80.3488H267.713L267.122 78.4143H263.863L263.272 80.3488H262.318H262.328ZM264.097 77.5846H266.884L265.573 73.2526H265.421L264.097 77.5846Z" fill="white"/>
<path d="M270.909 80.3488V72.6934H271.826V79.5145H275.694V80.3443H270.904L270.909 80.3488Z" fill="white"/>
<path d="M278.627 80.3488V77.4288L275.904 72.6934H276.954L279.007 76.3652H279.159L281.212 72.6934H282.262L279.539 77.4288V80.3488H278.622H278.627Z" fill="white"/>
<path d="M286.268 80.3501V73.5289H283.807V72.6992H289.646V73.5289H287.185V80.3501H286.268Z" fill="white"/>
<path d="M291.91 80.3488V72.6934H292.827V80.3488H291.91Z" fill="white"/>
<path d="M298.438 80.5049C297.526 80.5049 296.801 80.239 296.261 79.7119C295.72 79.1847 295.449 78.4146 295.449 77.4015V75.6503C295.449 74.6372 295.72 73.8671 296.261 73.3399C296.801 72.8128 297.526 72.5469 298.438 72.5469C299.35 72.5469 300.037 72.799 300.519 73.3033C301.005 73.8075 301.248 74.4951 301.248 75.3707V75.4257H300.34V75.3386C300.34 74.761 300.184 74.2888 299.877 73.9221C299.565 73.5554 299.089 73.372 298.438 73.372C297.787 73.372 297.283 73.5691 296.916 73.968C296.554 74.3668 296.371 74.9215 296.371 75.6366V77.429C296.371 78.1441 296.554 78.6988 296.916 79.0976C297.278 79.4964 297.787 79.6935 298.438 79.6935C299.089 79.6935 299.565 79.5102 299.877 79.1434C300.189 78.7767 300.34 78.3045 300.34 77.7269V77.5527H301.248V77.6948C301.248 78.5704 301.005 79.258 300.519 79.7623C300.033 80.2665 299.341 80.5187 298.438 80.5187V80.5049Z" fill="white"/>
<path d="M306.33 80.5062C305.775 80.5062 305.28 80.4099 304.845 80.2128C304.409 80.0157 304.061 79.7177 303.813 79.3235C303.561 78.9247 303.438 78.4296 303.438 77.8291V77.5999H304.345V77.8291C304.345 78.4617 304.533 78.9338 304.904 79.2456C305.276 79.5573 305.752 79.7086 306.334 79.7086C306.917 79.7086 307.389 79.5756 307.7 79.3051C308.012 79.0347 308.172 78.6955 308.172 78.2875C308.172 78.0033 308.104 77.7786 307.962 77.609C307.82 77.4394 307.622 77.3065 307.366 77.201C307.109 77.0956 306.811 77.0039 306.467 76.9214L305.899 76.7793C305.454 76.6647 305.06 76.5226 304.716 76.353C304.373 76.1834 304.107 75.9633 303.914 75.6929C303.722 75.4178 303.625 75.0694 303.625 74.6385C303.625 74.2076 303.731 73.8363 303.946 73.5246C304.162 73.2128 304.464 72.9699 304.854 72.8049C305.243 72.6352 305.693 72.5527 306.206 72.5527C306.719 72.5527 307.187 72.6398 307.599 72.8186C308.012 72.9974 308.337 73.2587 308.571 73.6071C308.805 73.9555 308.929 74.391 308.929 74.9136V75.372H308.021V74.9136C308.021 74.5422 307.943 74.2443 307.787 74.0151C307.632 73.7859 307.416 73.6208 307.141 73.5108C306.866 73.4008 306.554 73.3458 306.206 73.3458C305.702 73.3458 305.298 73.4558 304.991 73.6804C304.684 73.905 304.533 74.2168 304.533 74.6248C304.533 74.8952 304.597 75.1153 304.73 75.2803C304.863 75.4499 305.046 75.5828 305.289 75.6883C305.532 75.7937 305.816 75.8854 306.151 75.9679L306.719 76.11C307.164 76.2063 307.563 76.3346 307.916 76.4997C308.269 76.6647 308.553 76.8847 308.764 77.1689C308.975 77.4486 309.08 77.8153 309.08 78.2691C309.08 78.723 308.965 79.1126 308.741 79.4518C308.516 79.7865 308.195 80.0478 307.783 80.2357C307.37 80.4237 306.889 80.5154 306.334 80.5154L306.33 80.5062Z" fill="white"/>
</g>
<defs>
<clipPath id="clip0_6011_5618">
<rect width="313" height="104" fill="white" transform="translate(0.5)"/>
</clipPath>
</defs>
</svg>
