<svg width="193" height="64" viewBox="0 0 193 64" fill="none" xmlns="http://www.w3.org/2000/svg">
<g clip-path="url(#clip0_4401_1439)">
<path d="M21.7911 20.6413L28.8344 13.6113L30.7422 23.6879L21.7911 20.6413Z" fill="#B4C3D4"/>
<path d="M29.2159 13.4364L31.1605 23.6879L34.4899 22.3028L29.2159 13.4364Z" fill="#93A4B9"/>
<path d="M29.5664 13.2305L34.9054 22.1646L40.3178 19.9473L29.5664 13.2305Z" fill="#B4C3D4"/>
<path d="M29.9084 13.0217L40.9424 19.809L43.0933 19.6708L34.6284 12.8835L29.9084 13.0217Z" fill="#D6E3EE"/>
<path d="M41.081 20.0178L41.9148 24.7966L43.2318 23.8261L43.0934 19.9332L41.081 20.0178Z" fill="#B4C3D4"/>
<path d="M31.2283 23.9644L40.7362 20.156L41.5304 24.7966L40.5949 25.8347L36.3779 24.2408L31.2283 23.9644Z" fill="#102A4C"/>
<path d="M42.1578 25.0787L43.2318 24.1788L54.752 32.1396H50.0151L42.1578 25.0787Z" fill="#D6E3EE"/>
<path d="M49.9642 32.4838H54.752L52.5333 35.948L50.1733 33.8689L49.9642 32.4838Z" fill="#102A4C"/>
<path d="M40.8746 26.1817L41.9147 25.2818L49.6165 32.3456L49.8257 33.8012L44.3426 33.1778L42.1578 31.8322L40.8746 26.1817Z" fill="#B4C3D4"/>
<path d="M44.8287 33.5925L50.0575 34.2159L52.1857 36.295L51.2841 37.886L49.9642 38.8565L49.2718 37.2626L44.8287 33.5925Z" fill="#D6E3EE"/>
<path d="M42.0532 32.2073L36.8499 38.58L43.6501 39.3416L49.6165 39.0652L48.9919 37.5418L42.0532 32.2073Z" fill="#74879E"/>
<path d="M36.9319 38.8564L39.4162 40.5885L46.4256 41.0738L49.478 40.3121L49.8257 39.4122L43.6501 39.7563L36.9319 38.8564Z" fill="#102A4C"/>
<path d="M39.6254 40.865L41.5671 43.7057L44.8287 44.1317L46.1486 41.3502L39.6254 40.865Z" fill="#93A4B9"/>
<path d="M46.4256 41.3502L49.3396 40.7267L47.6749 43.5675L45.1057 44.3292L46.4256 41.3502Z" fill="#D6E3EE"/>
<path d="M31.3668 24.3113L36.3779 24.6216L40.4564 26.1817L41.7763 31.7926L31.3668 24.3113Z" fill="#D6E3EE"/>
<path d="M31.1577 24.6583L32.2684 35.601L41.6123 32.0691L31.1577 24.6583Z" fill="#74879E"/>
<path d="M32.4069 35.948L41.4993 32.4161L36.5023 38.3035L32.4069 35.948Z" fill="#536883"/>
<path d="M25.2591 28.5372L30.7422 24.0744L31.8869 35.601L25.2591 28.5372Z" fill="#93A4B9"/>
<path d="M32.4069 36.3063V44.0217L36.539 38.8565L32.4069 36.3063Z" fill="#74879E"/>
<path d="M36.7793 39.2034L32.7517 44.1317L41.2901 43.7734L39.193 40.865L36.7793 39.2034Z" fill="#536883"/>
<path d="M21.4435 21.0559L20.3328 31.7926L30.1911 23.9361L21.4435 21.0559Z" fill="#536883"/>
<path d="M24.7729 28.9519L20.2423 32.4161L19.9851 34.4246L31.576 35.8436L24.7729 28.9519Z" fill="#74879E"/>
<path d="M19.9173 34.7688L31.5053 36.1567L23.1789 49.3167L19.9173 34.7688Z" fill="#B4C3D4"/>
<path d="M31.9208 36.5009L23.3852 49.8696L25.1912 55.6188L31.9208 36.5009Z" fill="#74879E"/>
<path d="M32.2006 36.7802L25.5361 55.8276L28.8683 52.7837L31.9208 45.1501L32.2006 36.7802Z" fill="#324968"/>
<path d="M27.9667 0L29.5636 12.4688L27.4099 14.4068L27.9667 0Z" fill="#D6E3EE"/>
<path d="M27.4806 0.0479736L26.9266 14.8215L21.5226 20.1561L22.4836 12.1219L25.7452 0.623457L27.4806 0.0479736Z" fill="#324968"/>
<path d="M25.1912 0.899902L21.7911 12.3983L21.1665 20.503L17.8342 14.8215L21.5226 5.22449L25.1912 0.899902Z" fill="#93A4B9"/>
<path d="M20.9574 5.74921L15.6127 10.9427L16.0197 20.156L20.8867 20.7795L17.2803 14.8921L20.9574 5.74921Z" fill="#536883"/>
<path d="M35.4622 12.9512L35.1824 3.60242L32.8931 12.4688H34.6284L35.4622 12.9512Z" fill="#D6E3EE"/>
<path d="M29.7699 12.4688L34.8743 3.60242L32.5171 12.4688H29.7699Z" fill="#324968"/>
<path d="M16.031 20.6412L20.9574 21.1716L20.4712 25.6288L15.1973 30.9294L16.031 20.6412Z" fill="#D6E3EE"/>
<path d="M15.1973 31.4457L19.5696 34.3541L20.4712 26.1817L15.1973 31.4457Z" fill="#93A4B9"/>
<path d="M15.0588 31.8604L19.5696 34.8393L19.7788 35.7392L13.671 43.7057L15.0588 31.8604Z" fill="#B4C3D4"/>
<path d="M19.8466 36.295L13.671 44.3969V63.3766L22.7606 49.7314L19.8466 36.295Z" fill="#74879E"/>
<path d="M22.9697 50.2166L24.9821 56.1717L13.8095 64L22.9697 50.2166Z" fill="#324968"/>
<path d="M15.1294 11.4279L15.4319 18.6496L0 33.5247L7.74985 18.2716L15.1294 11.4279Z" fill="#D6E3EE"/>
<path d="M15.4997 19.6003L15.3358 22.3733L0 48.2757V34.1482L15.4997 19.6003Z" fill="#93A4B9"/>
<path d="M15.2679 23.5497L0 49.517C0 49.517 14.3635 31.031 14.3635 31.2397C14.3635 31.4485 15.2651 23.5525 15.2651 23.5525L15.2679 23.5497Z" fill="#324968"/>
<path d="M14.5727 31.8604L0 50.2504L13.1453 44.0527L14.5727 31.8604Z" fill="#93A4B9"/>
<path d="M0 50.7188L13.1849 44.6057V64L0 50.7188Z" fill="#536883"/>
<path d="M65.642 36.2555V18.5847H68.7029V33.5022H76.9982V36.2526H65.642V36.2555Z" fill="white"/>
<path d="M83.5469 36.2554V30.021L77.4533 18.5875H80.8675L84.864 26.3876H85.2936L89.29 18.5875H92.6788L86.5852 30.021V36.2554H83.5497H83.5469Z" fill="white"/>
<path d="M97.201 36.2555V18.5847H103.018L107.189 34.2102H107.593V18.5847H110.603V36.2555H104.812L100.641 20.6299H100.211V36.2555H97.201Z" fill="white"/>
<path d="M115.487 36.2555L120.824 27.3439L115.564 18.5847H119.029L122.796 25.1971H123.226L126.968 18.5847H130.459L125.199 27.3439L130.509 36.2555H127.044L123.226 29.4907H122.796L118.978 36.2555H115.487Z" fill="white"/>
<path d="M150.463 36.6081C149.115 36.6081 147.923 36.3683 146.885 35.8887C145.848 35.4092 145.034 34.7152 144.446 33.8068C143.855 32.8985 143.562 31.787 143.562 30.4752V29.8179H146.572V30.4752C146.572 31.6375 146.925 32.5035 147.634 33.0762C148.344 33.6489 149.288 33.9338 150.466 33.9338C151.645 33.9338 152.566 33.6912 153.171 33.2031C153.779 32.7151 154.081 32.0832 154.081 31.3103C154.081 30.7884 153.937 30.3624 153.652 30.0352C153.366 29.7079 152.948 29.4428 152.4 29.2396C151.851 29.0365 151.19 28.8447 150.415 28.6585L149.658 28.5062C148.494 28.2382 147.487 27.8968 146.637 27.485C145.786 27.0731 145.133 26.5371 144.678 25.8827C144.223 25.2254 143.994 24.3678 143.994 23.3071C143.994 22.2464 144.246 21.338 144.751 20.582C145.257 19.826 145.972 19.2448 146.902 18.8414C147.829 18.438 148.917 18.2349 150.164 18.2349C151.41 18.2349 152.524 18.4465 153.502 18.8668C154.48 19.2872 155.251 19.9191 155.817 20.7597C156.382 21.6004 156.664 22.6526 156.664 23.9136V24.7458H153.654V23.9136C153.654 23.1914 153.51 22.6103 153.225 22.173C152.939 21.7358 152.532 21.417 152.012 21.2139C151.489 21.0108 150.873 20.9121 150.167 20.9121C149.121 20.9121 148.33 21.1152 147.79 21.5186C147.25 21.922 146.981 22.4946 146.981 23.2337C146.981 23.7048 147.103 24.1054 147.349 24.4327C147.592 24.7599 147.957 25.0307 148.437 25.2395C148.917 25.451 149.52 25.6316 150.246 25.7811L151.003 25.9588C152.216 26.2268 153.279 26.5682 154.189 26.98C155.099 27.3919 155.811 27.9363 156.325 28.6077C156.84 29.282 157.097 30.1565 157.097 31.2341C157.097 32.3117 156.823 33.2285 156.274 34.0353C155.726 34.8421 154.96 35.474 153.974 35.9282C152.987 36.3824 151.82 36.6109 150.472 36.6109L150.463 36.6081Z" fill="white"/>
<path d="M168.368 36.6081C167.02 36.6081 165.828 36.3683 164.79 35.8887C163.753 35.4092 162.939 34.7152 162.351 33.8068C161.76 32.8985 161.466 31.787 161.466 30.4752V29.8179H164.477V30.4752C164.477 31.6375 164.83 32.5035 165.539 33.0762C166.249 33.6489 167.193 33.9338 168.371 33.9338C169.55 33.9338 170.471 33.6912 171.076 33.2031C171.684 32.7151 171.986 32.0832 171.986 31.3103C171.986 30.7884 171.842 30.3624 171.557 30.0352C171.271 29.7079 170.853 29.4428 170.304 29.2396C169.756 29.0365 169.095 28.8447 168.32 28.6585L167.563 28.5062C166.398 28.2382 165.392 27.8968 164.542 27.485C163.691 27.0731 163.038 26.5371 162.583 25.8827C162.128 25.2254 161.899 24.3678 161.899 23.3071C161.899 22.2464 162.15 21.338 162.656 20.582C163.162 19.826 163.877 19.2448 164.807 18.8414C165.734 18.438 166.822 18.2349 168.069 18.2349C169.315 18.2349 170.429 18.4465 171.407 18.8668C172.385 19.2872 173.156 19.9191 173.722 20.7597C174.287 21.6004 174.569 22.6526 174.569 23.9136V24.7458H171.559V23.9136C171.559 23.1914 171.415 22.6103 171.13 22.173C170.844 21.7358 170.437 21.417 169.917 21.2139C169.394 21.0108 168.778 20.9121 168.072 20.9121C167.026 20.9121 166.235 21.1152 165.695 21.5186C165.155 21.922 164.886 22.4946 164.886 23.2337C164.886 23.7048 165.008 24.1054 165.254 24.4327C165.497 24.7599 165.861 25.0307 166.342 25.2395C166.822 25.451 167.424 25.6316 168.151 25.7811L168.908 25.9588C170.121 26.2268 171.183 26.5682 172.094 26.98C173.004 27.3919 173.716 27.9363 174.23 28.6077C174.745 29.282 175.002 30.1565 175.002 31.2341C175.002 32.3117 174.728 33.2285 174.179 34.0353C173.631 34.8421 172.865 35.474 171.879 35.9282C170.892 36.3824 169.725 36.6109 168.377 36.6109L168.368 36.6081Z" fill="white"/>
<path d="M180.177 36.2555V18.5847H187.333C188.447 18.5847 189.425 18.8048 190.267 19.242C191.109 19.6793 191.776 20.2971 192.265 21.0982C192.754 21.8966 192.997 22.8444 192.997 23.939V24.2916C192.997 25.3692 192.748 26.3114 192.251 27.1182C191.754 27.925 191.078 28.5485 190.227 28.9857C189.377 29.423 188.41 29.643 187.33 29.643H183.232V36.2555H180.171H180.177ZM183.238 26.8897H187.031C187.907 26.8897 188.611 26.6556 189.142 26.1817C189.673 25.7106 189.939 25.0617 189.939 24.238V23.9841C189.939 23.1604 189.676 22.5115 189.156 22.0404C188.633 21.5693 187.924 21.3324 187.031 21.3324H183.238V26.8869V26.8897Z" fill="white"/>
<path d="M66.5661 49.4465L65.7974 44.7354H66.3626L67.0297 49.0826H67.1229L67.9934 44.7354H69.0053L69.8673 49.0826H69.9606L70.6276 44.7354H71.1929L70.4241 49.4465H69.4123L68.5417 45.0739H68.4485L67.578 49.4465H66.5605H66.5661Z" fill="white"/>
<path d="M72.6597 49.4465V44.7354H73.225V46.8286H75.4352V44.7354H76.0005V49.4465H75.4352V47.3392H73.225V49.4465H72.6597Z" fill="white"/>
<path d="M77.7585 49.4465V44.7354H80.6639V45.246H78.3237V46.8201H80.4746V47.3307H78.3237V48.9331H80.6979V49.4437H77.7585V49.4465Z" fill="white"/>
<path d="M82.2269 49.4465V44.7354H84.1347C84.4258 44.7354 84.683 44.7862 84.9063 44.8877C85.1296 44.9893 85.302 45.1332 85.4292 45.3194C85.5564 45.5055 85.6185 45.7284 85.6185 45.9879V46.0613C85.6185 46.3716 85.5451 46.6142 85.3953 46.7947C85.2455 46.9753 85.0702 47.0966 84.8696 47.1586V47.2517C85.0307 47.2574 85.1635 47.3082 85.2709 47.4097C85.3755 47.5113 85.4292 47.6608 85.4292 47.8639V49.4465H84.8696V47.9316C84.8696 47.7962 84.8328 47.6946 84.7593 47.6213C84.6859 47.5508 84.5728 47.5141 84.4258 47.5141H82.795V49.4465H82.2298H82.2269ZM82.7922 47.0035H84.081C84.3919 47.0035 84.6293 46.9273 84.7989 46.7778C84.9685 46.6283 85.0505 46.4167 85.0505 46.1487V46.1008C85.0505 45.8328 84.9685 45.6212 84.8017 45.4717C84.635 45.3222 84.3947 45.246 84.081 45.246H82.7922V47.0035Z" fill="white"/>
<path d="M87.1561 49.4465V44.7354H90.0616V45.246H87.7213V46.8201H89.8722V47.3307H87.7213V48.9331H90.0955V49.4437H87.1561V49.4465Z" fill="white"/>
<path d="M93.5719 49.4465L95.0274 44.7354H96.0251L97.4807 49.4465H96.8928L96.5282 48.256H94.5187L94.1541 49.4465H93.5662H93.5719ZM94.6657 47.7454H96.3841L95.5758 45.0796H95.4825L94.6657 47.7454Z" fill="white"/>
<path d="M100.443 49.5424C100.092 49.5424 99.7842 49.4691 99.5157 49.3224C99.2472 49.1757 99.038 48.9613 98.8883 48.6792C98.7385 48.3971 98.6621 48.0473 98.6621 47.6298V46.5522C98.6621 45.9287 98.8289 45.4548 99.1624 45.1304C99.4959 44.806 99.9425 44.6423 100.505 44.6423C101.067 44.6423 101.486 44.7947 101.78 45.0993C102.071 45.404 102.218 45.8131 102.218 46.3237V46.3575H101.658V46.3095C101.658 46.0867 101.619 45.8864 101.537 45.7115C101.455 45.5366 101.33 45.3984 101.158 45.2968C100.988 45.1953 100.768 45.1445 100.505 45.1445C100.104 45.1445 99.7927 45.2658 99.5666 45.5112C99.3433 45.7566 99.2302 46.098 99.2302 46.538V47.6411C99.2302 48.0811 99.3433 48.4225 99.5666 48.6679C99.7899 48.9133 100.106 49.0346 100.511 49.0346C100.915 49.0346 101.197 48.9218 101.384 48.6989C101.57 48.4761 101.664 48.177 101.664 47.8047V47.689H100.234V47.2038H102.215V49.4437H101.703V48.9331H101.61C101.562 49.0318 101.491 49.1277 101.401 49.2236C101.31 49.3196 101.189 49.3929 101.036 49.4521C100.884 49.5114 100.686 49.5396 100.443 49.5396V49.5424Z" fill="white"/>
<path d="M103.922 49.4465V44.7354H104.487V49.4465H103.922Z" fill="white"/>
<path d="M106.24 49.4465V44.7354H106.805V48.9331H109.19V49.4437H106.237L106.24 49.4465Z" fill="white"/>
<path d="M110.595 49.4465V44.7354H111.16V49.4465H110.595Z" fill="white"/>
<path d="M114.074 49.4465V45.2488H112.556V44.7382H116.157V45.2488H114.639V49.4465H114.074Z" fill="white"/>
<path d="M118.786 49.4465V47.6495L117.107 44.7354H117.754L119.02 46.995H119.114L120.38 44.7354H121.027L119.348 47.6495V49.4465H118.783H118.786Z" fill="white"/>
<path d="M124.656 49.4465V44.7354H125.736L126.991 49.0882H127.078L128.333 44.7354H129.413V49.4465H128.867V45.1078H128.774L127.528 49.4465H126.55L125.303 45.1078H125.21V49.4465H124.665H124.656Z" fill="white"/>
<path d="M131.162 49.4465V44.7354H134.068V45.246H131.728V46.8201H133.878V47.3307H131.728V48.9331H134.102V49.4437H131.162V49.4465Z" fill="white"/>
<path d="M135.634 49.4465V44.7354H138.539V45.246H136.199V46.8201H138.35V47.3307H136.199V48.9331H138.573V49.4437H135.634V49.4465Z" fill="white"/>
<path d="M141.261 49.4465V45.2488H139.743V44.7382H143.344V45.2488H141.826V49.4465H141.261Z" fill="white"/>
<path d="M146.19 49.5424C145.848 49.5424 145.543 49.4831 145.274 49.3618C145.006 49.2405 144.791 49.0572 144.638 48.8146C144.483 48.5691 144.407 48.2645 144.407 47.8949V47.7539H144.966V47.8949C144.966 48.2842 145.082 48.5748 145.311 48.7666C145.54 48.9584 145.834 49.0515 146.193 49.0515C146.552 49.0515 146.843 48.9697 147.035 48.8033C147.227 48.6368 147.326 48.4281 147.326 48.177C147.326 48.0021 147.284 47.8639 147.196 47.7595C147.109 47.6551 146.987 47.5733 146.829 47.5084C146.67 47.4436 146.487 47.3871 146.275 47.3364L145.924 47.2489C145.65 47.1784 145.407 47.0909 145.195 46.9866C144.983 46.8822 144.819 46.7468 144.701 46.5803C144.582 46.4111 144.522 46.1967 144.522 45.9315C144.522 45.6663 144.587 45.4378 144.72 45.246C144.853 45.0542 145.04 44.9047 145.28 44.8031C145.52 44.6987 145.797 44.6479 146.114 44.6479C146.43 44.6479 146.719 44.7015 146.973 44.8116C147.227 44.9216 147.428 45.0824 147.572 45.2968C147.716 45.5112 147.793 45.7792 147.793 46.1008V46.3829H147.233V46.1008C147.233 45.8723 147.185 45.6889 147.089 45.5478C146.993 45.4068 146.86 45.3052 146.69 45.2375C146.521 45.1698 146.328 45.136 146.114 45.136C145.803 45.136 145.554 45.2037 145.365 45.3419C145.175 45.4801 145.082 45.672 145.082 45.923C145.082 46.0895 145.122 46.2249 145.204 46.3264C145.286 46.4308 145.399 46.5126 145.548 46.5775C145.698 46.6424 145.873 46.6988 146.08 46.7496L146.43 46.837C146.704 46.8963 146.95 46.9753 147.168 47.0768C147.386 47.1784 147.561 47.3138 147.691 47.4887C147.821 47.6608 147.886 47.8865 147.886 48.1657C147.886 48.445 147.815 48.6848 147.677 48.8936C147.538 49.0995 147.34 49.2603 147.086 49.3759C146.832 49.4916 146.535 49.548 146.193 49.548L146.19 49.5424Z" fill="white"/>
<path d="M151.374 49.4465L152.829 44.7354H153.827L155.282 49.4465H154.695L154.33 48.256H152.32L151.956 49.4465H151.368H151.374ZM152.467 47.7454H154.186L153.377 45.0796H153.284L152.467 47.7454Z" fill="white"/>
<path d="M156.667 49.4465V44.7354H157.767L159.412 49.0882H159.499V44.7354H160.059V49.4465H158.959L157.32 45.0852H157.227V49.4465H156.667Z" fill="white"/>
<path d="M161.447 49.4465L162.902 44.7354H163.9L165.355 49.4465H164.768L164.403 48.256H162.393L162.029 49.4465H161.441H161.447ZM162.538 47.7454H164.256L163.448 45.0796H163.354L162.538 47.7454Z" fill="white"/>
<path d="M166.738 49.4465V44.7354H167.303V48.9331H169.688V49.4437H166.735L166.738 49.4465Z" fill="white"/>
<path d="M171.497 49.4465V47.6495L169.818 44.7354H170.466L171.732 46.995H171.825L173.091 44.7354H173.738L172.06 47.6495V49.4465H171.494H171.497Z" fill="white"/>
<path d="M176.209 49.4465V45.2488H174.691V44.7382H178.292V45.2488H176.774V49.4465H176.209Z" fill="white"/>
<path d="M179.688 49.4465V44.7354H180.253V49.4465H179.688Z" fill="white"/>
<path d="M183.713 49.5424C183.15 49.5424 182.704 49.3788 182.37 49.0544C182.037 48.7299 181.87 48.256 181.87 47.6326V46.555C181.87 45.9315 182.037 45.4576 182.37 45.1332C182.704 44.8088 183.15 44.6451 183.713 44.6451C184.275 44.6451 184.699 44.8003 184.996 45.1106C185.295 45.4209 185.445 45.8441 185.445 46.3829V46.4167H184.886V46.3631C184.886 46.0077 184.789 45.7171 184.6 45.4914C184.408 45.2658 184.114 45.1529 183.713 45.1529C183.311 45.1529 183 45.2742 182.774 45.5197C182.551 45.7651 182.438 46.1064 182.438 46.5465V47.6495C182.438 48.0896 182.551 48.4309 182.774 48.6764C182.998 48.9218 183.311 49.0431 183.713 49.0431C184.114 49.0431 184.408 48.9302 184.6 48.7046C184.792 48.4789 184.886 48.1883 184.886 47.8329V47.7257H185.445V47.8131C185.445 48.3519 185.295 48.7751 184.996 49.0854C184.696 49.3957 184.269 49.5509 183.713 49.5509V49.5424Z" fill="white"/>
<path d="M188.58 49.5424C188.238 49.5424 187.932 49.4831 187.664 49.3618C187.395 49.2405 187.181 49.0572 187.028 48.8146C186.872 48.5691 186.796 48.2645 186.796 47.8949V47.7539H187.356V47.8949C187.356 48.2842 187.472 48.5748 187.701 48.7666C187.93 48.9584 188.223 49.0515 188.582 49.0515C188.941 49.0515 189.232 48.9697 189.425 48.8033C189.617 48.6368 189.716 48.4281 189.716 48.177C189.716 48.0021 189.673 47.8639 189.586 47.7595C189.498 47.6551 189.377 47.5733 189.218 47.5084C189.06 47.4436 188.876 47.3871 188.664 47.3364L188.314 47.2489C188.04 47.1784 187.797 47.0909 187.585 46.9866C187.373 46.8822 187.209 46.7468 187.09 46.5803C186.971 46.4111 186.912 46.1967 186.912 45.9315C186.912 45.6663 186.977 45.4378 187.11 45.246C187.243 45.0542 187.429 44.9047 187.669 44.8031C187.91 44.6987 188.187 44.6479 188.503 44.6479C188.82 44.6479 189.108 44.7015 189.362 44.8116C189.617 44.9216 189.818 45.0824 189.962 45.2968C190.106 45.5112 190.182 45.7792 190.182 46.1008V46.3829H189.622V46.1008C189.622 45.8723 189.574 45.6889 189.478 45.5478C189.382 45.4068 189.249 45.3052 189.08 45.2375C188.91 45.1698 188.718 45.136 188.503 45.136C188.192 45.136 187.944 45.2037 187.754 45.3419C187.565 45.4801 187.472 45.672 187.472 45.923C187.472 46.0895 187.511 46.2249 187.593 46.3264C187.675 46.4308 187.788 46.5126 187.938 46.5775C188.088 46.6424 188.263 46.6988 188.469 46.7496L188.82 46.837C189.094 46.8963 189.34 46.9753 189.557 47.0768C189.775 47.1784 189.95 47.3138 190.08 47.4887C190.21 47.6608 190.275 47.8865 190.275 48.1657C190.275 48.445 190.205 48.6848 190.066 48.8936C189.928 49.0995 189.73 49.2603 189.476 49.3759C189.221 49.4916 188.924 49.548 188.582 49.548L188.58 49.5424Z" fill="white"/>
</g>
<defs>
<clipPath id="clip0_4401_1439">
<rect width="193" height="64" fill="white"/>
</clipPath>
</defs>
</svg>
