<svg width="194" height="65" viewBox="0 0 194 65" fill="none" xmlns="http://www.w3.org/2000/svg">
<g clip-path="url(#clip0_4401_1360)">
<path d="M22.2911 21.1413L29.3344 14.1113L31.2422 24.1879L22.2911 21.1413Z" fill="#B4C3D4"/>
<path d="M29.7159 13.9364L31.6605 24.1879L34.9899 22.8028L29.7159 13.9364Z" fill="#93A4B9"/>
<path d="M30.0664 13.7305L35.4054 22.6646L40.8178 20.4473L30.0664 13.7305Z" fill="#B4C3D4"/>
<path d="M30.4084 13.5217L41.4424 20.309L43.5933 20.1708L35.1284 13.3835L30.4084 13.5217Z" fill="#D6E3EE"/>
<path d="M41.581 20.5178L42.4148 25.2966L43.7318 24.3261L43.5934 20.4332L41.581 20.5178Z" fill="#B4C3D4"/>
<path d="M31.7283 24.4644L41.2362 20.656L42.0304 25.2966L41.0949 26.3347L36.8779 24.7408L31.7283 24.4644Z" fill="#102A4C"/>
<path d="M42.6578 25.5787L43.7318 24.6788L55.252 32.6396H50.5151L42.6578 25.5787Z" fill="#D6E3EE"/>
<path d="M50.4642 32.9838H55.252L53.0333 36.448L50.6733 34.3689L50.4642 32.9838Z" fill="#102A4C"/>
<path d="M41.3746 26.6817L42.4147 25.7818L50.1165 32.8456L50.3257 34.3012L44.8426 33.6778L42.6578 32.3322L41.3746 26.6817Z" fill="#B4C3D4"/>
<path d="M45.3287 34.0925L50.5575 34.7159L52.6857 36.795L51.7841 38.386L50.4642 39.3565L49.7718 37.7626L45.3287 34.0925Z" fill="#D6E3EE"/>
<path d="M42.5532 32.7073L37.3499 39.08L44.1501 39.8416L50.1165 39.5652L49.4919 38.0418L42.5532 32.7073Z" fill="#74879E"/>
<path d="M37.4319 39.3564L39.9162 41.0885L46.9256 41.5738L49.978 40.8121L50.3257 39.9122L44.1501 40.2563L37.4319 39.3564Z" fill="#102A4C"/>
<path d="M40.1254 41.365L42.0671 44.2057L45.3287 44.6317L46.6486 41.8502L40.1254 41.365Z" fill="#93A4B9"/>
<path d="M46.9256 41.8502L49.8396 41.2267L48.1749 44.0675L45.6057 44.8292L46.9256 41.8502Z" fill="#D6E3EE"/>
<path d="M31.8668 24.8113L36.8779 25.1216L40.9564 26.6817L42.2763 32.2926L31.8668 24.8113Z" fill="#D6E3EE"/>
<path d="M31.6577 25.1583L32.7684 36.101L42.1123 32.5691L31.6577 25.1583Z" fill="#74879E"/>
<path d="M32.9069 36.448L41.9993 32.9161L37.0023 38.8035L32.9069 36.448Z" fill="#536883"/>
<path d="M25.7591 29.0372L31.2422 24.5744L32.3869 36.101L25.7591 29.0372Z" fill="#93A4B9"/>
<path d="M32.9069 36.8063V44.5217L37.039 39.3565L32.9069 36.8063Z" fill="#74879E"/>
<path d="M37.2793 39.7034L33.2517 44.6317L41.7901 44.2734L39.693 41.365L37.2793 39.7034Z" fill="#536883"/>
<path d="M21.9435 21.5559L20.8328 32.2926L30.6911 24.4361L21.9435 21.5559Z" fill="#536883"/>
<path d="M25.2729 29.4519L20.7423 32.9161L20.4851 34.9246L32.076 36.3436L25.2729 29.4519Z" fill="#74879E"/>
<path d="M20.4173 35.2688L32.0053 36.6567L23.6789 49.8167L20.4173 35.2688Z" fill="#B4C3D4"/>
<path d="M32.4208 37.0009L23.8852 50.3696L25.6912 56.1188L32.4208 37.0009Z" fill="#74879E"/>
<path d="M32.7006 37.2802L26.0361 56.3276L29.3683 53.2837L32.4208 45.6501L32.7006 37.2802Z" fill="#324968"/>
<path d="M28.4667 0.5L30.0636 12.9688L27.9099 14.9068L28.4667 0.5Z" fill="#D6E3EE"/>
<path d="M27.9806 0.547974L27.4266 15.3215L22.0226 20.6561L22.9836 12.6219L26.2452 1.12346L27.9806 0.547974Z" fill="#324968"/>
<path d="M25.6912 1.3999L22.2911 12.8983L21.6665 21.003L18.3342 15.3215L22.0226 5.72449L25.6912 1.3999Z" fill="#93A4B9"/>
<path d="M21.4574 6.24921L16.1127 11.4427L16.5197 20.656L21.3867 21.2795L17.7803 15.3921L21.4574 6.24921Z" fill="#536883"/>
<path d="M35.9622 13.4512L35.6824 4.10242L33.3931 12.9688H35.1284L35.9622 13.4512Z" fill="#D6E3EE"/>
<path d="M30.2699 12.9688L35.3743 4.10242L33.0171 12.9688H30.2699Z" fill="#324968"/>
<path d="M16.531 21.1412L21.4574 21.6716L20.9712 26.1288L15.6973 31.4294L16.531 21.1412Z" fill="#D6E3EE"/>
<path d="M15.6973 31.9457L20.0696 34.8541L20.9712 26.6817L15.6973 31.9457Z" fill="#93A4B9"/>
<path d="M15.5588 32.3604L20.0696 35.3393L20.2788 36.2392L14.171 44.2057L15.5588 32.3604Z" fill="#B4C3D4"/>
<path d="M20.3466 36.795L14.171 44.8969V63.8766L23.2606 50.2314L20.3466 36.795Z" fill="#74879E"/>
<path d="M23.4697 50.7166L25.4821 56.6717L14.3095 64.5L23.4697 50.7166Z" fill="#324968"/>
<path d="M15.6294 11.9279L15.9319 19.1496L0.5 34.0247L8.24985 18.7716L15.6294 11.9279Z" fill="#D6E3EE"/>
<path d="M15.9997 20.1003L15.8358 22.8733L0.5 48.7757V34.6482L15.9997 20.1003Z" fill="#93A4B9"/>
<path d="M15.7679 24.0497L0.5 50.017C0.5 50.017 14.8635 31.531 14.8635 31.7397C14.8635 31.9485 15.7651 24.0525 15.7651 24.0525L15.7679 24.0497Z" fill="#324968"/>
<path d="M15.0727 32.3604L0.5 50.7504L13.6453 44.5527L15.0727 32.3604Z" fill="#93A4B9"/>
<path d="M0.5 51.2188L13.6849 45.1057V64.5L0.5 51.2188Z" fill="#536883"/>
<path d="M66.142 36.7555V19.0847H69.2029V34.0022H77.4982V36.7526H66.142V36.7555Z" fill="#102A4C"/>
<path d="M84.0469 36.7554V30.521L77.9532 19.0875H81.3675L85.3639 26.8876H85.7935L89.79 19.0875H93.1788L87.0852 30.521V36.7554H84.0497H84.0469Z" fill="#102A4C"/>
<path d="M97.701 36.7555V19.0847H103.518L107.689 34.7102H108.093V19.0847H111.104V36.7555H105.312L101.141 21.1299H100.711V36.7555H97.701Z" fill="#102A4C"/>
<path d="M115.987 36.7555L121.324 27.8439L116.064 19.0847H119.529L123.296 25.6971H123.726L127.468 19.0847H130.959L125.699 27.8439L131.009 36.7555H127.544L123.726 29.9907H123.296L119.478 36.7555H115.987Z" fill="#102A4C"/>
<path d="M150.963 37.1081C149.615 37.1081 148.423 36.8683 147.385 36.3887C146.348 35.9092 145.534 35.2152 144.946 34.3068C144.355 33.3985 144.062 32.287 144.062 30.9752V30.3179H147.072V30.9752C147.072 32.1375 147.425 33.0035 148.134 33.5762C148.844 34.1489 149.788 34.4338 150.966 34.4338C152.145 34.4338 153.066 34.1912 153.671 33.7031C154.279 33.2151 154.581 32.5832 154.581 31.8103C154.581 31.2884 154.437 30.8624 154.152 30.5352C153.866 30.2079 153.448 29.9428 152.9 29.7396C152.351 29.5365 151.69 29.3447 150.915 29.1585L150.158 29.0062C148.994 28.7382 147.987 28.3968 147.137 27.985C146.286 27.5731 145.633 27.0371 145.178 26.3827C144.723 25.7254 144.494 24.8678 144.494 23.8071C144.494 22.7464 144.746 21.838 145.251 21.082C145.757 20.326 146.472 19.7448 147.402 19.3414C148.329 18.938 149.417 18.7349 150.664 18.7349C151.91 18.7349 153.024 18.9465 154.002 19.3668C154.98 19.7872 155.751 20.4191 156.317 21.2597C156.882 22.1004 157.164 23.1526 157.164 24.4136V25.2458H154.154V24.4136C154.154 23.6914 154.01 23.1103 153.725 22.673C153.439 22.2358 153.032 21.917 152.512 21.7139C151.989 21.5108 151.373 21.4121 150.667 21.4121C149.621 21.4121 148.83 21.6152 148.29 22.0186C147.75 22.422 147.481 22.9946 147.481 23.7337C147.481 24.2048 147.603 24.6054 147.849 24.9327C148.092 25.2599 148.456 25.5307 148.937 25.7395C149.417 25.951 150.019 26.1316 150.746 26.2811L151.503 26.4588C152.716 26.7268 153.779 27.0682 154.689 27.48C155.599 27.8919 156.311 28.4363 156.825 29.1077C157.34 29.782 157.597 30.6565 157.597 31.7341C157.597 32.8117 157.323 33.7285 156.774 34.5353C156.226 35.3421 155.46 35.974 154.474 36.4282C153.487 36.8824 152.32 37.1109 150.972 37.1109L150.963 37.1081Z" fill="#102A4C"/>
<path d="M168.868 37.1081C167.52 37.1081 166.327 36.8683 165.29 36.3887C164.253 35.9092 163.439 35.2152 162.851 34.3068C162.26 33.3985 161.966 32.287 161.966 30.9752V30.3179H164.976V30.9752C164.976 32.1375 165.33 33.0035 166.039 33.5762C166.749 34.1489 167.693 34.4338 168.871 34.4338C170.05 34.4338 170.971 34.1912 171.576 33.7031C172.184 33.2151 172.486 32.5832 172.486 31.8103C172.486 31.2884 172.342 30.8624 172.056 30.5352C171.771 30.2079 171.353 29.9428 170.804 29.7396C170.256 29.5365 169.595 29.3447 168.82 29.1585L168.063 29.0062C166.898 28.7382 165.892 28.3968 165.041 27.985C164.191 27.5731 163.538 27.0371 163.083 26.3827C162.628 25.7254 162.399 24.8678 162.399 23.8071C162.399 22.7464 162.65 21.838 163.156 21.082C163.662 20.326 164.377 19.7448 165.307 19.3414C166.234 18.938 167.322 18.7349 168.569 18.7349C169.815 18.7349 170.929 18.9465 171.907 19.3668C172.885 19.7872 173.656 20.4191 174.221 21.2597C174.787 22.1004 175.069 23.1526 175.069 24.4136V25.2458H172.059V24.4136C172.059 23.6914 171.915 23.1103 171.63 22.673C171.344 22.2358 170.937 21.917 170.417 21.7139C169.894 21.5108 169.278 21.4121 168.572 21.4121C167.526 21.4121 166.734 21.6152 166.195 22.0186C165.655 22.422 165.386 22.9946 165.386 23.7337C165.386 24.2048 165.508 24.6054 165.754 24.9327C165.997 25.2599 166.361 25.5307 166.842 25.7395C167.322 25.951 167.924 26.1316 168.651 26.2811L169.408 26.4588C170.621 26.7268 171.683 27.0682 172.594 27.48C173.504 27.8919 174.216 28.4363 174.73 29.1077C175.245 29.782 175.502 30.6565 175.502 31.7341C175.502 32.8117 175.228 33.7285 174.679 34.5353C174.131 35.3421 173.365 35.974 172.379 36.4282C171.392 36.8824 170.225 37.1109 168.877 37.1109L168.868 37.1081Z" fill="#102A4C"/>
<path d="M180.677 36.7555V19.0847H187.833C188.947 19.0847 189.925 19.3048 190.767 19.742C191.609 20.1793 192.276 20.7971 192.765 21.5982C193.254 22.3966 193.497 23.3444 193.497 24.439V24.7916C193.497 25.8692 193.248 26.8114 192.751 27.6182C192.254 28.425 191.578 29.0485 190.727 29.4857C189.877 29.923 188.91 30.143 187.83 30.143H183.732V36.7555H180.671H180.677ZM183.738 27.3897H187.531C188.407 27.3897 189.111 27.1556 189.642 26.6817C190.173 26.2106 190.439 25.5617 190.439 24.738V24.4841C190.439 23.6604 190.176 23.0115 189.656 22.5404C189.133 22.0693 188.424 21.8324 187.531 21.8324H183.738V27.3869V27.3897Z" fill="#102A4C"/>
<path d="M67.0661 49.9465L66.2974 45.2354H66.8626L67.5297 49.5826H67.6229L68.4934 45.2354H69.5053L70.3673 49.5826H70.4606L71.1276 45.2354H71.6929L70.9241 49.9465H69.9123L69.0417 45.5739H68.9485L68.078 49.9465H67.0605H67.0661Z" fill="#102A4C"/>
<path d="M73.1597 49.9465V45.2354H73.725V47.3286H75.9352V45.2354H76.5005V49.9465H75.9352V47.8392H73.725V49.9465H73.1597Z" fill="#102A4C"/>
<path d="M78.2585 49.9465V45.2354H81.164V45.746H78.8238V47.3201H80.9746V47.8307H78.8238V49.4331H81.1979V49.9437H78.2585V49.9465Z" fill="#102A4C"/>
<path d="M82.7269 49.9465V45.2354H84.6347C84.9258 45.2354 85.183 45.2862 85.4063 45.3877C85.6296 45.4893 85.802 45.6332 85.9292 45.8194C86.0564 46.0055 86.1185 46.2284 86.1185 46.4879V46.5613C86.1185 46.8716 86.0451 47.1142 85.8953 47.2947C85.7455 47.4753 85.5702 47.5966 85.3696 47.6586V47.7517C85.5307 47.7574 85.6635 47.8082 85.7709 47.9097C85.8755 48.0113 85.9292 48.1608 85.9292 48.3639V49.9465H85.3696V48.4316C85.3696 48.2962 85.3328 48.1946 85.2593 48.1213C85.1859 48.0508 85.0728 48.0141 84.9258 48.0141H83.295V49.9465H82.7298H82.7269ZM83.2922 47.5035H84.581C84.8919 47.5035 85.1293 47.4273 85.2989 47.2778C85.4685 47.1283 85.5505 46.9167 85.5505 46.6487V46.6008C85.5505 46.3328 85.4685 46.1212 85.3017 45.9717C85.135 45.8222 84.8947 45.746 84.581 45.746H83.2922V47.5035Z" fill="#102A4C"/>
<path d="M87.6561 49.9465V45.2354H90.5616V45.746H88.2213V47.3201H90.3722V47.8307H88.2213V49.4331H90.5955V49.9437H87.6561V49.9465Z" fill="#102A4C"/>
<path d="M94.0719 49.9465L95.5274 45.2354H96.5251L97.9807 49.9465H97.3928L97.0282 48.756H95.0187L94.6541 49.9465H94.0662H94.0719ZM95.1657 48.2454H96.8841L96.0758 45.5796H95.9825L95.1657 48.2454Z" fill="#102A4C"/>
<path d="M100.943 50.0424C100.592 50.0424 100.284 49.9691 100.016 49.8224C99.7472 49.6757 99.538 49.4613 99.3882 49.1792C99.2384 48.8971 99.1621 48.5473 99.1621 48.1298V47.0522C99.1621 46.4287 99.3289 45.9548 99.6624 45.6304C99.9959 45.306 100.442 45.1423 101.005 45.1423C101.567 45.1423 101.986 45.2947 102.28 45.5993C102.571 45.904 102.718 46.3131 102.718 46.8237V46.8575H102.158V46.8095C102.158 46.5867 102.118 46.3864 102.037 46.2115C101.955 46.0366 101.83 45.8984 101.658 45.7968C101.488 45.6953 101.268 45.6445 101.005 45.6445C100.604 45.6445 100.293 45.7658 100.067 46.0112C99.8433 46.2566 99.7302 46.598 99.7302 47.038V48.1411C99.7302 48.5811 99.8433 48.9225 100.067 49.1679C100.29 49.4133 100.606 49.5346 101.011 49.5346C101.415 49.5346 101.697 49.4218 101.884 49.1989C102.07 48.9761 102.164 48.677 102.164 48.3047V48.189H100.734V47.7038H102.715V49.9437H102.203V49.4331H102.11C102.062 49.5318 101.991 49.6277 101.901 49.7236C101.81 49.8196 101.689 49.8929 101.536 49.9521C101.384 50.0114 101.186 50.0396 100.943 50.0396V50.0424Z" fill="#102A4C"/>
<path d="M104.422 49.9465V45.2354H104.987V49.9465H104.422Z" fill="#102A4C"/>
<path d="M106.74 49.9465V45.2354H107.305V49.4331H109.69V49.9437H106.737L106.74 49.9465Z" fill="#102A4C"/>
<path d="M111.095 49.9465V45.2354H111.66V49.9465H111.095Z" fill="#102A4C"/>
<path d="M114.574 49.9465V45.7488H113.056V45.2382H116.657V45.7488H115.139V49.9465H114.574Z" fill="#102A4C"/>
<path d="M119.286 49.9465V48.1495L117.607 45.2354H118.254L119.52 47.495H119.614L120.88 45.2354H121.527L119.848 48.1495V49.9465H119.283H119.286Z" fill="#102A4C"/>
<path d="M125.156 49.9465V45.2354H126.236L127.491 49.5882H127.578L128.833 45.2354H129.913V49.9465H129.367V45.6078H129.274L128.028 49.9465H127.05L125.803 45.6078H125.71V49.9465H125.165H125.156Z" fill="#102A4C"/>
<path d="M131.662 49.9465V45.2354H134.568V45.746H132.228V47.3201H134.378V47.8307H132.228V49.4331H134.602V49.9437H131.662V49.9465Z" fill="#102A4C"/>
<path d="M136.134 49.9465V45.2354H139.039V45.746H136.699V47.3201H138.85V47.8307H136.699V49.4331H139.073V49.9437H136.134V49.9465Z" fill="#102A4C"/>
<path d="M141.761 49.9465V45.7488H140.243V45.2382H143.844V45.7488H142.326V49.9465H141.761Z" fill="#102A4C"/>
<path d="M146.69 50.0424C146.348 50.0424 146.043 49.9831 145.774 49.8618C145.506 49.7405 145.291 49.5572 145.138 49.3146C144.983 49.0691 144.907 48.7645 144.907 48.3949V48.2539H145.466V48.3949C145.466 48.7842 145.582 49.0748 145.811 49.2666C146.04 49.4584 146.334 49.5515 146.693 49.5515C147.052 49.5515 147.343 49.4697 147.535 49.3033C147.727 49.1368 147.826 48.9281 147.826 48.677C147.826 48.5021 147.784 48.3639 147.696 48.2595C147.609 48.1551 147.487 48.0733 147.329 48.0084C147.171 47.9436 146.987 47.8871 146.775 47.8364L146.424 47.7489C146.15 47.6784 145.907 47.5909 145.695 47.4866C145.483 47.3822 145.319 47.2468 145.201 47.0803C145.082 46.9111 145.022 46.6967 145.022 46.4315C145.022 46.1663 145.087 45.9378 145.22 45.746C145.353 45.5542 145.54 45.4047 145.78 45.3031C146.02 45.1987 146.297 45.1479 146.614 45.1479C146.93 45.1479 147.219 45.2015 147.473 45.3116C147.727 45.4216 147.928 45.5824 148.072 45.7968C148.216 46.0112 148.293 46.2792 148.293 46.6008V46.8829H147.733V46.6008C147.733 46.3723 147.685 46.1889 147.589 46.0478C147.493 45.9068 147.36 45.8052 147.19 45.7375C147.021 45.6698 146.829 45.636 146.614 45.636C146.303 45.636 146.054 45.7037 145.865 45.8419C145.675 45.9801 145.582 46.172 145.582 46.423C145.582 46.5895 145.622 46.7249 145.704 46.8264C145.786 46.9308 145.899 47.0126 146.048 47.0775C146.198 47.1424 146.373 47.1988 146.58 47.2496L146.93 47.337C147.204 47.3963 147.45 47.4753 147.668 47.5768C147.886 47.6784 148.061 47.8138 148.191 47.9887C148.321 48.1608 148.386 48.3865 148.386 48.6657C148.386 48.945 148.315 49.1848 148.177 49.3936C148.038 49.5995 147.84 49.7603 147.586 49.8759C147.332 49.9916 147.035 50.048 146.693 50.048L146.69 50.0424Z" fill="#102A4C"/>
<path d="M151.874 49.9465L153.329 45.2354H154.327L155.782 49.9465H155.194L154.83 48.756H152.82L152.456 49.9465H151.868H151.874ZM152.967 48.2454H154.686L153.877 45.5796H153.784L152.967 48.2454Z" fill="#102A4C"/>
<path d="M157.167 49.9465V45.2354H158.267L159.912 49.5882H159.999V45.2354H160.559V49.9465H159.459L157.82 45.5852H157.727V49.9465H157.167Z" fill="#102A4C"/>
<path d="M161.947 49.9465L163.402 45.2354H164.4L165.855 49.9465H165.268L164.903 48.756H162.893L162.529 49.9465H161.941H161.947ZM163.038 48.2454H164.756L163.948 45.5796H163.854L163.038 48.2454Z" fill="#102A4C"/>
<path d="M167.238 49.9465V45.2354H167.803V49.4331H170.188V49.9437H167.235L167.238 49.9465Z" fill="#102A4C"/>
<path d="M171.997 49.9465V48.1495L170.318 45.2354H170.966L172.232 47.495H172.325L173.591 45.2354H174.238L172.56 48.1495V49.9465H171.994H171.997Z" fill="#102A4C"/>
<path d="M176.709 49.9465V45.7488H175.191V45.2382H178.792V45.7488H177.274V49.9465H176.709Z" fill="#102A4C"/>
<path d="M180.188 49.9465V45.2354H180.753V49.9465H180.188Z" fill="#102A4C"/>
<path d="M184.213 50.0424C183.65 50.0424 183.204 49.8788 182.87 49.5544C182.537 49.2299 182.37 48.756 182.37 48.1326V47.055C182.37 46.4315 182.537 45.9576 182.87 45.6332C183.204 45.3088 183.65 45.1451 184.213 45.1451C184.775 45.1451 185.199 45.3003 185.496 45.6106C185.795 45.9209 185.945 46.3441 185.945 46.8829V46.9167H185.386V46.8631C185.386 46.5077 185.289 46.2171 185.1 45.9914C184.908 45.7658 184.614 45.6529 184.213 45.6529C183.811 45.6529 183.5 45.7742 183.274 46.0197C183.051 46.2651 182.938 46.6064 182.938 47.0465V48.1495C182.938 48.5896 183.051 48.9309 183.274 49.1764C183.498 49.4218 183.811 49.5431 184.213 49.5431C184.614 49.5431 184.908 49.4302 185.1 49.2046C185.292 48.9789 185.386 48.6883 185.386 48.3329V48.2257H185.945V48.3131C185.945 48.8519 185.795 49.2751 185.496 49.5854C185.196 49.8957 184.769 50.0509 184.213 50.0509V50.0424Z" fill="#102A4C"/>
<path d="M189.08 50.0424C188.738 50.0424 188.432 49.9831 188.164 49.8618C187.895 49.7405 187.681 49.5572 187.528 49.3146C187.372 49.0691 187.296 48.7645 187.296 48.3949V48.2539H187.856V48.3949C187.856 48.7842 187.972 49.0748 188.201 49.2666C188.43 49.4584 188.723 49.5515 189.082 49.5515C189.441 49.5515 189.732 49.4697 189.925 49.3033C190.117 49.1368 190.216 48.9281 190.216 48.677C190.216 48.5021 190.173 48.3639 190.086 48.2595C189.998 48.1551 189.877 48.0733 189.718 48.0084C189.56 47.9436 189.376 47.8871 189.164 47.8364L188.814 47.7489C188.54 47.6784 188.297 47.5909 188.085 47.4866C187.873 47.3822 187.709 47.2468 187.59 47.0803C187.471 46.9111 187.412 46.6967 187.412 46.4315C187.412 46.1663 187.477 45.9378 187.61 45.746C187.743 45.5542 187.929 45.4047 188.169 45.3031C188.41 45.1987 188.687 45.1479 189.003 45.1479C189.32 45.1479 189.608 45.2015 189.862 45.3116C190.117 45.4216 190.318 45.5824 190.462 45.7968C190.606 46.0112 190.682 46.2792 190.682 46.6008V46.8829H190.122V46.6008C190.122 46.3723 190.074 46.1889 189.978 46.0478C189.882 45.9068 189.749 45.8052 189.58 45.7375C189.41 45.6698 189.218 45.636 189.003 45.636C188.692 45.636 188.444 45.7037 188.254 45.8419C188.065 45.9801 187.972 46.172 187.972 46.423C187.972 46.5895 188.011 46.7249 188.093 46.8264C188.175 46.9308 188.288 47.0126 188.438 47.0775C188.588 47.1424 188.763 47.1988 188.969 47.2496L189.32 47.337C189.594 47.3963 189.84 47.4753 190.057 47.5768C190.275 47.6784 190.45 47.8138 190.58 47.9887C190.71 48.1608 190.775 48.3865 190.775 48.6657C190.775 48.945 190.705 49.1848 190.566 49.3936C190.428 49.5995 190.23 49.7603 189.976 49.8759C189.721 49.9916 189.424 50.048 189.082 50.048L189.08 50.0424Z" fill="#102A4C"/>
</g>
<defs>
<clipPath id="clip0_4401_1360">
<rect width="193" height="64" fill="white" transform="translate(0.5 0.5)"/>
</clipPath>
</defs>
</svg>
